<svg xmlns="http://www.w3.org/2000/svg" xmlns:xlink="http://www.w3.org/1999/xlink" width="226" height="34" viewBox="0 0 226 34">
    <defs>
        <path id="a" d="M.229.269h20.62v26.985H.23z"/>
        <path id="c" d="M.045.051h8.42v26.307H.046z"/>
        <path id="e" d="M.126.051h8.42v26.307H.126z"/>
    </defs>
    <g fill="none" fill-rule="evenodd">
        <path fill="#FFFFFF" d="M61.401 0L56 26h17.778l.643-2.95H60.042l1.86-8.949h13.27l.573-2.983H62.51l1.717-8.135h14.2L79 0zM82.418 7.185l-.575 3.12h.071a7.254 7.254 0 0 1 2.915-2.467 8.658 8.658 0 0 1 3.707-.823c1.75 0 3.053.39 3.905 1.17.85.78 1.277 2.012 1.277 3.694 0 .414-.048.95-.144 1.608a26.471 26.471 0 0 1-.396 2.084l-2.267 10.787h-3.059l2.375-11.043c.024-.194.06-.42.108-.676.048-.256.096-.524.144-.805.048-.28.09-.548.126-.804a4.72 4.72 0 0 0 .054-.64c0-.902-.312-1.566-.936-1.993-.624-.426-1.391-.64-2.303-.64-.84 0-1.673.208-2.5.622a7.12 7.12 0 0 0-2.106 1.572 5.137 5.137 0 0 0-1.295 1.774c-.312.694-.564 1.42-.756 2.175l-2.159 10.458h-3.023l3.886-19.173h2.951z"/>
        <g transform="translate(92.95 6.746)">
            <mask id="b" fill="#fff">
                <use xlink:href="#a"/>
            </mask>
            <path fill="#FFFFFF" d="M5.087 13.871a4.86 4.86 0 0 0 .846 1.609c.371.463.845.836 1.421 1.115.576.281 1.247.42 2.015.42 1.152 0 2.153-.292 3.005-.877a7.29 7.29 0 0 0 2.106-2.23c.551-.902.965-1.883 1.241-2.944.275-1.06.414-2.066.414-3.016 0-1.487-.39-2.682-1.17-3.584-.78-.902-1.973-1.353-3.58-1.353-1.08 0-2.028.305-2.843.914-.816.61-1.5 1.36-2.052 2.25-.552.89-.971 1.852-1.26 2.888-.287 1.036-.431 1.993-.431 2.87 0 .683.096 1.329.288 1.938m11.732 5.796c-.24.89-.493 1.664-.756 2.322-.792 1.901-1.896 3.254-3.311 4.058-1.416.805-3.13 1.207-5.146 1.207-.96 0-1.877-.11-2.753-.329a7.091 7.091 0 0 1-2.321-1.024 5.367 5.367 0 0 1-1.637-1.81c-.42-.743-.642-1.64-.666-2.687h3.023c.048.633.21 1.152.485 1.554.276.402.624.718 1.044.95.42.232.905.39 1.457.476.552.085 1.116.127 1.692.127 1.175 0 2.141-.219 2.897-.658a5.61 5.61 0 0 0 1.853-1.718 8.853 8.853 0 0 0 1.134-2.432 73.61 73.61 0 0 0 .773-2.76l-.071-.073c-.673 1.023-1.512 1.755-2.52 2.194-1.007.438-2.1.657-3.274.657-1.152 0-2.166-.188-3.041-.566a5.719 5.719 0 0 1-2.177-1.609c-.576-.695-1.014-1.517-1.314-2.468-.3-.951-.45-1.999-.45-3.145 0-1.39.222-2.779.666-4.168a12.653 12.653 0 0 1 1.907-3.748 10.02 10.02 0 0 1 3.041-2.706C8.554.616 9.91.269 11.42.269a7.197 7.197 0 0 1 3.761 1.042c.54.329.996.731 1.368 1.206.371.476.63 1.006.774 1.591v.074h.071L17.97.439h2.88l-3.348 16.43a63.375 63.375 0 0 1-.683 2.798" mask="url(#b)"/>
        </g>
        <g transform="translate(112.602)">
            <mask id="d" fill="#fff">
                <use xlink:href="#c"/>
            </mask>
            <path fill="#FFFFFF" d="M8.466.05L3.068 26.359H.045L5.407.051z" mask="url(#d)"/>
        </g>
        <g transform="translate(118.71)">
            <mask id="f" fill="#fff">
                <use xlink:href="#e"/>
            </mask>
            <path fill="#FFFFFF" d="M4.66 4.053L5.452.05h3.094l-.791 4.002H4.66zm2.375 3.132L3.149 26.358H.126l3.85-19.173h3.059z" mask="url(#f)"/>
        </g>
        <path fill="#FFFFFF" d="M136.864 10.58c-.768-.549-1.69-.823-2.77-.823a9.28 9.28 0 0 0-1.404.11c-.48.073-.905.201-1.278.384a2.613 2.613 0 0 0-.917.731c-.24.305-.36.701-.36 1.188 0 .44.138.818.414 1.134.276.317.648.61 1.116.878.468.269.995.518 1.583.75.587.231 1.181.469 1.781.712.624.268 1.23.561 1.817.878.588.317 1.11.676 1.566 1.078.455.403.827.878 1.116 1.426.287.55.432 1.189.432 1.92 0 1.049-.229 1.944-.685 2.688a5.597 5.597 0 0 1-1.763 1.81c-.72.463-1.53.798-2.429 1.005-.899.207-1.805.311-2.717.311-1.08 0-2.075-.104-2.986-.31-.913-.208-1.699-.554-2.358-1.043-.66-.487-1.182-1.139-1.565-1.956-.384-.817-.576-1.834-.576-3.053h3.023c-.049.683.054 1.261.306 1.737.252.475.599.853 1.044 1.133.443.28.958.482 1.546.604a9.118 9.118 0 0 0 1.854.183c.504 0 1.008-.05 1.512-.147.503-.097.959-.262 1.367-.493.407-.232.738-.53.99-.896.252-.367.377-.817.377-1.353 0-.463-.143-.86-.431-1.189a4.529 4.529 0 0 0-1.116-.896 11.277 11.277 0 0 0-1.565-.75 41.502 41.502 0 0 1-1.782-.749 21.916 21.916 0 0 1-1.816-.804 7.61 7.61 0 0 1-1.585-1.042 4.622 4.622 0 0 1-1.115-1.408c-.276-.536-.414-1.158-.414-1.865 0-.878.198-1.657.594-2.34a5.275 5.275 0 0 1 1.565-1.7 7.617 7.617 0 0 1 2.214-1.042 8.935 8.935 0 0 1 2.537-.366c.863 0 1.714.104 2.555.31.84.208 1.589.55 2.249 1.025a5.345 5.345 0 0 1 1.601 1.864c.408.768.612 1.7.612 2.798h-3.06c.049-1.073-.311-1.883-1.079-2.432M148.99.25l-2.194 9.983.072.073a7.257 7.257 0 0 1 2.915-2.468 8.655 8.655 0 0 1 3.707-.823c1.75 0 3.052.39 3.904 1.17.851.78 1.277 2.012 1.277 3.694 0 .414-.047.95-.143 1.608a26.86 26.86 0 0 1-.396 2.084l-2.267 10.787h-3.059l2.374-11.043c.025-.195.06-.42.11-.676.047-.256.094-.524.143-.805.048-.28.09-.548.126-.804.036-.256.054-.469.054-.64 0-.902-.312-1.566-.936-1.993-.624-.426-1.392-.64-2.303-.64-.84 0-1.673.208-2.501.622a7.11 7.11 0 0 0-2.105 1.573 5.134 5.134 0 0 0-1.296 1.773c-.312.694-.564 1.42-.756 2.175l-2.159 10.458h-3.023L145.932.25h3.059zM172.2.363l-4.73 23.01h13.509l-.61 2.985h-16.948L168.795.363zM187.822 4.15l.789-3.787h3.081l-.788 3.786h-3.082zm2.366 3.386l-3.87 18.822h-3.01l3.834-18.822h3.046zM195.92 26.358l-2.652-18.822h3.225l1.577 15.655h.072l8.026-15.655h3.296l-10.283 18.822zM222.668 13.197a4.556 4.556 0 0 0-.716-1.712 3.84 3.84 0 0 0-1.38-1.2c-.573-.304-1.278-.456-2.115-.456-.883 0-1.677.14-2.382.418a5.89 5.89 0 0 0-1.845 1.147 6.802 6.802 0 0 0-1.326 1.694 10.087 10.087 0 0 0-.86 2.057h10.75a7.133 7.133 0 0 0-.126-1.948m-11.161 6.317c0 .728.13 1.378.394 1.947.262.57.62 1.045 1.075 1.42.453.377.967.669 1.54.874.574.207 1.17.31 1.792.31 1.362 0 2.485-.31 3.368-.929.884-.619 1.541-1.51 1.97-2.676h3.047c-.24 1.044-.621 1.96-1.147 2.749a7.395 7.395 0 0 1-1.9 1.967 8.34 8.34 0 0 1-2.472 1.182c-.908.267-1.862.402-2.866.402-1.529 0-2.801-.238-3.816-.711-1.016-.473-1.822-1.08-2.418-1.82a6.563 6.563 0 0 1-1.255-2.44 9.86 9.86 0 0 1-.358-2.567c0-1.796.256-3.44.77-4.933.514-1.493 1.206-2.772 2.078-3.841.872-1.068 1.887-1.893 3.046-2.476a8 8 0 0 1 3.637-.874c2.723 0 4.712.728 5.966 2.185 1.254 1.456 1.881 3.507 1.881 6.153 0 .486-.036.946-.107 1.383a73.43 73.43 0 0 1-.18 1.057h-13.938c-.071.533-.107 1.08-.107 1.638M48.387 26.409L53.614.308h-.352l-5.227 26.1zM6.35.323l-.922 4.563A30.484 30.484 0 0 1 9.095.323H6.35zM7.652 9.873c-1.08 2.449-1.63 4.93-1.63 7.374 0 1.879.33 3.671.98 5.328.56 1.434 1.354 2.931 2.362 4.09h4.494c-.63-.41-1.211-.884-1.739-1.421-2.54-2.58-3.746-6.286-3.39-10.09.174-1.88.718-3.76 1.616-5.591.93-1.892 2.212-3.673 3.812-5.3A19.103 19.103 0 0 1 19.71.323h-4.343a24.227 24.227 0 0 0-2.818 2.451c-2.125 2.16-3.773 4.548-4.897 7.1"/>
        <path fill="#FFFFFF" d="M13.4 6.396h2.197c.115-.123.233-.247.354-.37 2.33-2.367 5.227-3.889 8.202-4.329L24.43.323h-2.396c-2.576.825-5.107 2.35-7.274 4.551-.485.492-.938 1-1.36 1.522M27.093 17.297c1.527-1.552 2.368-3.336 2.368-5.026 0-1.3-.486-2.48-1.402-3.412a4.28 4.28 0 0 0-1.535-1l-.295 1.462c.291.161.556.36.788.596.804.817 1.191 1.939 1.095 3.16-.095 1.213-.669 2.412-1.617 3.376a6.382 6.382 0 0 1-1.979 1.363l-.275 1.368a8.02 8.02 0 0 0 2.852-1.887"/>
        <path fill="#FFFFFF" d="M30.313 12.27c0 1.922-.93 3.924-2.617 5.64-1.061 1.076-2.326 1.854-3.653 2.258l-.324 1.607c1.71-.462 3.396-1.472 4.824-2.924 3.71-3.769 4.272-8.882 1.305-11.899a6.001 6.001 0 0 0-2.817-1.608l-.336 1.664a5.14 5.14 0 0 1 1.966 1.24 5.627 5.627 0 0 1 1.652 4.023"/>
        <path fill="#FFFFFF" d="M27.263 13.008c.076-.965-.226-1.844-.849-2.478a2.663 2.663 0 0 0-.365-.308l-1.315 6.519c.417-.244.81-.547 1.159-.902.805-.817 1.29-1.823 1.37-2.83M2.56 24.743c-.268-.682-.493-1.569-.674-2.283l-.81 4.205h2.382a17.067 17.067 0 0 1-.897-1.922M5.17 17.247c0-2.566.574-5.168 1.704-7.73C8.04 6.87 9.75 4.397 11.947 2.163a25.448 25.448 0 0 1 2.02-1.84h-3.66c-.146.144-.291.288-.437.435C7.839 2.822 6.177 5.06 4.913 7.439L2.33 20.257c.182 1.38.523 2.899 1.022 4.165.306.778.67 1.526 1.088 2.244h3.812c-.851-1.088-1.535-2.476-2.043-3.77-.69-1.759-1.04-3.66-1.04-5.649M7.527 30.662c-.131.66-.54 1.073-.988 1.073-.279 0-.537-.124-.54-.467a1.08 1.08 0 0 1 .032-.26l.34-1.675h-.31L5.724 31a1.71 1.71 0 0 0-.037.304c.004.498.333.699.777.699.382 0 .715-.242.907-.547h.01l-.086.471h.287l.525-2.593h-.311l-.27 1.33zM.998 28.629h2.03l.06-.292H.72L0 31.927h2.415l.061-.291H.398l.285-1.418h1.89l.06-.293H.739zM3.884 31.735c-.47 0-.693-.332-.697-.774-.006-.634.358-1.437 1.075-1.437.455 0 .716.297.72.748.007.642-.383 1.463-1.098 1.463zm1.51-3.398l-.292 1.484h-.01c-.118-.407-.435-.563-.836-.563-.857 0-1.388.889-1.38 1.684.006.634.325 1.06.98 1.06.45 0 .71-.202.924-.544h.011l-.109.468h.301l.724-3.59h-.313zM12.348 15.932c0 .123.003.247.007.37h1.93a8.536 8.536 0 0 1-.048-.906c0-1.783.533-3.606 1.51-5.265h-1.825c-1.029 1.866-1.574 3.846-1.574 5.8M20.981 10.13H19.41c-1.28 1.427-2.01 3.155-2.01 4.795 0 .483.061.942.179 1.376h1.516a4.035 4.035 0 0 1-.396-1.763c0-1.381.625-2.777 1.76-3.93.167-.171.342-.33.523-.477M15.089 15.396c0 .309.018.61.052.905h1.56a6.146 6.146 0 0 1-.154-1.376c0-.978.216-1.965.64-2.934a8.879 8.879 0 0 1 1.105-1.86h-1.54c-1.073 1.64-1.663 3.479-1.663 5.265"/>
        <path fill="#FFFFFF" d="M29.146 19.464c-1.647 1.673-3.62 2.802-5.616 3.248l-.348 1.92c2.58-.517 5.142-2.104 7.146-4.14 2.272-2.308 3.742-5.11 4.14-7.89a10.42 10.42 0 0 0 .102-1.824c-.08-2.259-.952-4.28-2.57-5.924-1.205-1.226-2.734-1.977-4.411-2.277l-.386 1.917a6.872 6.872 0 0 1 3.25 1.847c3.308 3.363 2.746 9.005-1.307 13.123"/>
        <path fill="#FFFFFF" d="M32.604 4.24c1.148 1.169 1.96 2.52 2.41 4.02.012.043.026.087.037.13l.403-1.994h1.136a10.968 10.968 0 0 0-2.429-3.737A9.928 9.928 0 0 0 30.535.323h-2.49l-.285 1.404c.405.072.8.17 1.187.29a8.777 8.777 0 0 1 3.657 2.223M37.5 6.396h2.901A13.695 13.695 0 0 0 37.18.323h-4.648a10.509 10.509 0 0 1 2.233 1.724A11.779 11.779 0 0 1 37.5 6.396M23.605 4.414L23.97 2.6c-2.492.439-5.037 1.722-7.171 3.796h2.325c1.377-1.011 2.912-1.695 4.481-1.982M23.419 5.334a9.88 9.88 0 0 0-2.715 1.062h2.502l.213-1.062zM9.576 15.235c-.33 3.542.788 7.002 3.146 9.399a9.61 9.61 0 0 0 2.94 2.031h3.479l.22-1.072c-2.004-.314-3.768-1.395-5.168-2.818a9.131 9.131 0 0 1-1.746-2.505h-2.025l.781-3.97h.3a10.653 10.653 0 0 1-.007-.37c0-1.955.504-3.927 1.46-5.8h-.5l.68-3.401c-2.041 2.633-3.288 5.585-3.56 8.506"/>
        <path fill="#FFFFFF" d="M20.41 20.276l.003-.006h-3.311a6.502 6.502 0 0 0 2.98 1.613l.329-1.607zM9.701 29.524c.366 0 .641.232.62.617h.312c.012-.602-.409-.883-.963-.883-.876 0-1.378.865-1.371 1.673.006.64.362 1.07.995 1.07.617 0 1.001-.322 1.183-.914h-.311c-.13.376-.424.648-.836.648-.484 0-.714-.342-.718-.804-.007-.674.342-1.407 1.09-1.407M19.907 22.73c-1.36-.313-2.585-1.004-3.605-2.04a7.404 7.404 0 0 1-.38-.42h-2.517c.371.694.837 1.33 1.39 1.893 1.28 1.299 2.897 2.3 4.739 2.579l.373-2.011zM24.323 31.926h.313l.525-2.593h-.313zM30.197 28.549h-.312l-.157.784h-.46l-.057.266h.46l-.333 1.72a1.399 1.399 0 0 0-.035.265c.003.313.244.374.475.374.104 0 .213-.011.318-.02l.05-.278c-.124.021-.241.03-.365.03-.119 0-.163-.09-.163-.18a.942.942 0 0 1 .03-.248l.336-1.663h.518l.048-.266h-.51l.157-.784zM25.448 28.337h-.375l-.125.508h.375zM31.403 26.666l.583-3.078c-1.26 1.16-2.68 2.32-4.186 3.078h3.603zM26.96 29.302c-.055-.004-.114-.004-.168-.004-.456-.005-.726.26-.92.633h-.01l.125-.598h-.282l-.527 2.593h.312l.276-1.356c.098-.488.392-.946.949-.955.06 0 .118.003.178.003l.066-.316zM28.07 29.523c.351 0 .627.172.603.57h.314c.005-.6-.385-.837-.92-.837-.41 0-.943.208-.938.71.004.427.348.583.69.72.338.13.69.236.694.573.002.331-.364.477-.64.477-.36 0-.73-.152-.726-.653h-.314c-.023.647.479.919.97.919.483 0 1.025-.212 1.021-.794-.005-.478-.486-.624-.838-.764-.289-.117-.542-.237-.544-.479-.004-.356.357-.442.628-.442M37.341 11.12h-1.914c0 .528-.037 1.065-.116 1.609-.22 1.543-.75 3.089-1.544 4.563h1.91c.833-1.672 1.371-3.408 1.58-5.138.041-.347.068-.691.084-1.034M42.335.323h-4.02a14.582 14.582 0 0 1 2.964 6.073h3.108c-.19-1.35-.53-2.654-1.013-3.894a16.373 16.373 0 0 0-1.039-2.18M43.313.323a17.598 17.598 0 0 1 1.597 4.256l.86-4.256h-2.457zM40.782 11.12h-2.588c-.015.378-.046.757-.091 1.139-.204 1.694-.707 3.392-1.478 5.033h2.63c.78-1.823 1.281-3.7 1.476-5.576.021-.2.038-.397.051-.596M41.579 11.806a20.015 20.015 0 0 1-1.398 5.485h1.965l1.224-6.171h-1.734c-.015.229-.034.458-.057.686M22.997 25.543l-.226 1.123h2.864c2.353-.863 4.573-2.464 6.387-4.309.092-.09.18-.185.269-.277l.71-3.517a17.337 17.337 0 0 1-2.07 2.542c-2.211 2.247-5.07 3.947-7.934 4.438M15.625 28.337l-.123.508h.374l.126-.508zM14.878 31.926h.31l.526-2.593h-.313zM12.623 30.975c-.094.453-.41.76-.908.76-.298 0-.57-.134-.573-.467-.005-.543.623-.56 1.003-.593.158-.013.463-.02.562-.146l.01.01-.094.436zm.509-1.14c-.005-.456-.546-.577-.89-.577-.551 0-.993.26-1.072.849h.311c.06-.433.4-.583.797-.583.239 0 .54.065.542.374.002.339-.1.457-.3.506-.198.05-.486.025-.813.076-.454.08-.881.254-.877.802.005.508.358.72.823.72.357 0 .705-.177.883-.477l.008.01a1.246 1.246 0 0 0-.006.142c.004.17.1.28.272.28.083 0 .187-.008.258-.025l.041-.253a.846.846 0 0 1-.123.01c-.075 0-.164-.012-.164-.105-.002-.156.05-.29.158-.873.05-.23.155-.623.152-.875zM22.688 28.63h1.925l.055-.293h-2.259l-.722 3.59h.335l.345-1.71h1.716l.052-.292h-1.706zM16.962 31.735c-.519 0-.77-.342-.775-.844-.006-.608.365-1.367 1.047-1.367.5 0 .755.332.76.815.005.603-.35 1.396-1.032 1.396m.323-2.477c-.911 0-1.418.813-1.41 1.663.006.65.373 1.081 1.029 1.081.945 0 1.41-.854 1.4-1.73-.005-.637-.425-1.014-1.019-1.014M21.061 11.22c-.974.99-1.51 2.167-1.51 3.318 0 .664.183 1.266.533 1.763h.913l1.18-5.957a5.424 5.424 0 0 0-1.116.876M20.112 29.258c-.381 0-.716.24-.906.547H19.2l.082-.472h-.286l-.526 2.593h.314l.268-1.33c.133-.66.539-1.072.99-1.072.276 0 .535.125.538.468 0 .085-.014.18-.031.261l-.342 1.673h.312l.336-1.662c.025-.123.036-.227.035-.31-.004-.495-.333-.696-.777-.696M14.51 28.549h-.313l-.154.784h-.46l-.059.266h.461l-.336 1.72c-.022.116-.031.21-.031.265.003.314.241.374.473.374.104 0 .213-.01.316-.022l.053-.276c-.123.02-.242.03-.367.03-.116 0-.163-.09-.163-.18a.924.924 0 0 1 .033-.247l.333-1.664h.521l.046-.266h-.51l.157-.784z"/>
    </g>
</svg>
